<?xml version="1.0" encoding="utf-8"?>
<!-- Generator: Adobe Illustrator 17.0.0, SVG Export Plug-In . SVG Version: 6.00 Build 0)  -->
<!DOCTYPE svg PUBLIC "-//W3C//DTD SVG 1.1//EN" "http://www.w3.org/Graphics/SVG/1.1/DTD/svg11.dtd">
<svg version="1.1" id="Layer_1" xmlns="http://www.w3.org/2000/svg" xmlns:xlink="http://www.w3.org/1999/xlink" x="0px" y="0px"
	 width="168px" height="116px" viewBox="0 0 168 116" style="enable-background:new 0 0 168 116;" xml:space="preserve">
<style type="text/css">
	.st0{fill-rule:evenodd;clip-rule:evenodd;fill:#757474;}
</style>
<path class="st0" d="M83.997,24.7c21.953,0,39.748,17.794,39.748,39.745s-17.794,39.741-39.748,39.741
	c-21.947,0-39.741-17.79-39.741-39.741S62.05,24.7,83.997,24.7 M127.826,18.256h25.349c4.372,0,7.948,3.576,7.948,7.948
	c0,4.372-3.576,7.948-7.948,7.948h-25.349c-4.372,0-7.948-3.576-7.948-7.948C119.878,21.833,123.454,18.256,127.826,18.256
	 M15.897,13.1h0.43V5.364c0-2.835,2.319-5.156,5.158-5.156h13.317c2.835,0,5.156,2.321,5.156,5.156V13.1H152.1
	c8.743,0,15.901,7.153,15.901,15.896v70.896c0,8.743-7.157,15.899-15.901,15.899H15.897c-8.741,0-15.896-7.155-15.896-15.899V28.996
	C0.001,20.253,7.156,13.1,15.897,13.1"/>
<path class="st0" d="M83.998,39.738c13.646,0,24.709,11.063,24.709,24.707S97.644,89.148,83.998,89.148
	c-13.644,0-24.704-11.06-24.704-24.704S70.354,39.738,83.998,39.738"/>
</svg>
