<?xml version="1.0" encoding="utf-8"?>
<!-- Generator: Adobe Illustrator 17.0.0, SVG Export Plug-In . SVG Version: 6.00 Build 0)  -->
<!DOCTYPE svg PUBLIC "-//W3C//DTD SVG 1.1//EN" "http://www.w3.org/Graphics/SVG/1.1/DTD/svg11.dtd">
<svg version="1.1" id="Layer_1" xmlns="http://www.w3.org/2000/svg" xmlns:xlink="http://www.w3.org/1999/xlink" x="0px" y="0px"
	 width="82px" height="173px" viewBox="0 0 82 173" style="enable-background:new 0 0 82 173;" xml:space="preserve">
<style type="text/css">
	.st0{fill:#757474;}
</style>
<path class="st0" d="M48.489,15.933c2.12-10.145-8.803-18.234-18.173-15.339C20.137,2.217,15.471,16.283,22.941,23.49
	C30.445,32.48,47.459,27.959,48.489,15.933 M81.043,35.14c-2.227-8.678-3.811-17.584-6.911-26.004
	c-1.797-6.079-12.66-5.057-12.242,1.607c0.498,6.524,2.842,12.728,4.244,19.081c-13.139-0.011-26.27-0.03-39.393-0.011
	c-6.604,0.205-13.64,0.224-19.473,3.743c-5.828,3.769-6.889,11.383-6.991,17.755c0.057,13.541-0.072,27.098,0.072,40.617
	c-0.038,3.161,1.09,7.793,5.118,7.702c3.682,0.912,7.151-2.113,7.014-5.847c0.407-13.465-0.091-26.961,0.224-40.446h3.347
	c0.198,36.274,0.053,72.548,0.072,108.822c-0.072,3.625,0.334,8.256,4.1,10.019c4.179,1.695,10.92,1.037,11.532-4.483
	c0.604-22.702-0.049-45.435,0.315-68.152c1.292,0.015,3.845,0.015,5.137,0.015c0.16,17.926,0.034,35.871,0.065,53.801
	c0.095,5.992-0.722,12.147,1.41,17.907c3.895,1.531,9.267,3.043,12.573-0.456c2.641-4.119,1.691-9.252,1.888-13.88
	c0.034-37.334-0.179-74.679,0.099-112.01c8.302,0.072,16.608,0.331,24.917-0.038C82.681,44.008,81.951,38.453,81.043,35.14"/>
</svg>
