<?xml version="1.0" encoding="utf-8"?>
<!-- Generator: Adobe Illustrator 17.0.0, SVG Export Plug-In . SVG Version: 6.00 Build 0)  -->
<!DOCTYPE svg PUBLIC "-//W3C//DTD SVG 1.1//EN" "http://www.w3.org/Graphics/SVG/1.1/DTD/svg11.dtd">
<svg version="1.1" id="Layer_1" xmlns="http://www.w3.org/2000/svg" xmlns:xlink="http://www.w3.org/1999/xlink" x="0px" y="0px"
	 width="2880px" height="1450px" viewBox="0 -350 2880 1450" enable-background="new 0 -350 2880 1450" xml:space="preserve">
<g>
	<polyline fill="none" stroke="#F0F0F0" stroke-width="7.7314" stroke-miterlimit="10" points="2880,291.552 2863.521,291.552 
		2863.521,315.179 2853.126,315.179 2853.126,304.808 2742.784,304.808 2742.784,315.179 2619.024,315.179 2619.024,341.323 
		2578.886,341.323 2578.886,371.877 2566.566,371.877 2566.566,397.65 2578.886,397.65 2578.886,466.362 2507.901,483.24 
		2507.901,245.23 2431.534,245.23 2431.534,229.535 2390.724,229.535 2390.724,221.46 2313.646,221.46 2313.646,229.535 
		2287.712,229.535 2287.712,245.23 2263.934,245.23 2263.934,397.356 2237.57,397.356 2237.57,387.676 2180.768,387.676 
		2180.768,397.356 2166.066,397.356 2166.066,407.051 2174.942,407.051 2174.942,415.107 2166.066,415.107 2166.066,643.256 
		2117.993,643.256 2117.993,488.629 2026.426,488.629 2026.426,85.566 1986.157,85.566 1986.157,63.612 1942.1,63.612 
		1904.738,85.566 1904.738,254.964 1798.846,254.964 1798.846,554.72 1776.112,554.72 1776.112,416.468 1732.758,416.468 
		1732.758,209.581 1702.316,209.581 1702.316,201.919 1725.668,201.919 1725.668,191.141 1604.12,191.141 1604.12,178.342 
		1566.514,178.342 1566.514,191.141 1546.467,191.141 1546.467,201.919 1566.251,201.919 1566.251,209.581 1538.608,209.581 
		1538.608,649.117 1477.256,588.476 1477.256,474.044 1449.628,474.044 1449.628,460.792 1426.886,460.792 1426.886,466.022 
		1351.822,466.022 1351.822,433.581 1283.105,368.012 1283.105,305.623 1242.968,305.623 1242.968,293.114 1158.422,293.114 
		1158.422,283.833 1139.731,283.833 1139.731,293.114 1120.874,293.114 1120.874,305.623 1109.018,305.623 1109.018,569.398 
		1029.343,569.398 1029.343,477.318 1035.891,477.318 1029.343,474.02 1029.343,473.734 1028.771,473.734 903.171,410.48 
		783.292,470.851 783.292,273.461 667.758,273.461 667.758,154.46 618.011,154.46 618.011,120.948 612.63,120.948 612.63,109.494 
		610.163,109.494 608.47,2.268 606.893,109.494 604.431,109.494 604.431,120.948 598.648,120.948 598.648,135.908 524.307,135.908 
		524.307,154.46 508.817,154.46 508.817,347.408 439.586,412.575 439.586,627.167 397.775,627.167 397.775,653.732 352.863,653.732 
		352.863,503.353 260.45,503.353 260.45,445.175 220.545,445.175 220.545,432.205 154.739,432.205 154.739,284.324 111.796,284.324 
		111.796,269.85 52.253,269.85 52.253,284.324 20.639,284.324 20.639,377.119 0,377.119 	"/>
</g>
</svg>
