<?xml version="1.0" encoding="utf-8"?>
<!-- Generator: Adobe Illustrator 17.0.0, SVG Export Plug-In . SVG Version: 6.00 Build 0)  -->
<!DOCTYPE svg PUBLIC "-//W3C//DTD SVG 1.1//EN" "http://www.w3.org/Graphics/SVG/1.1/DTD/svg11.dtd">
<svg version="1.1" id="Isolation_Mode" xmlns="http://www.w3.org/2000/svg" xmlns:xlink="http://www.w3.org/1999/xlink" x="0px"
	 y="0px" width="556px" height="30px" viewBox="0 0 556 30" style="enable-background:new 0 0 556 30;" xml:space="preserve">
<style type="text/css">
	.st0{fill:#FFFFFF;}
</style>
<g>
	<g>
		<path class="st0" d="M97.724,2.03h5.414v21.253h12.938v4.658H97.724V2.03z"/>
		<path class="st0" d="M132.524,2.03h6.126l9.167,25.911h-5.871l-1.71-5.326h-9.542l-1.756,5.326h-5.663L132.524,2.03z
			 M132.167,18.151h6.636L135.53,7.955L132.167,18.151z"/>
		<path class="st0" d="M156.426,2.03h5.676l10.285,18.068V2.03h5.045v25.911h-5.413L161.471,9.557v18.385h-5.045V2.03z"/>
		<path class="st0" d="M203.095,2.594c1.817,0.598,3.29,1.694,4.416,3.287c0.903,1.289,1.519,2.684,1.847,4.184
			c0.328,1.5,0.492,2.93,0.492,4.289c0,3.445-0.692,6.363-2.076,8.754c-1.876,3.223-4.773,4.834-8.691,4.834h-11.171V2.03h11.171
			C200.691,2.055,202.027,2.242,203.095,2.594z M193.168,6.531v16.91h5c2.559,0,4.343-1.26,5.352-3.779
			c0.552-1.383,0.828-3.029,0.828-4.94c0-2.637-0.414-4.662-1.241-6.074s-2.473-2.118-4.938-2.118H193.168z"/>
		<path class="st0" d="M236.499,2.03h7.791v25.911h-5.045V10.415c0-0.503,0.006-1.209,0.018-2.118
			c0.011-0.908,0.017-1.608,0.017-2.101l-4.91,21.745h-5.262l-4.875-21.745c0,0.493,0.006,1.193,0.018,2.101
			c0.011,0.909,0.017,1.615,0.017,2.118v17.526h-5.045V2.03h7.879l4.717,20.374L236.499,2.03z"/>
		<path class="st0" d="M262.11,2.03h6.126l9.167,25.911h-5.871l-1.71-5.326h-9.542l-1.756,5.326h-5.663L262.11,2.03z
			 M261.753,18.151h6.636l-3.273-10.195L261.753,18.151z"/>
		<path class="st0" d="M302.703,2.698c0.954,0.411,1.763,1.014,2.426,1.811c0.548,0.657,0.983,1.383,1.303,2.18
			c0.32,0.797,0.48,1.705,0.48,2.725c0,1.23-0.311,2.44-0.932,3.63c-0.621,1.189-1.646,2.031-3.076,2.523
			c1.195,0.481,2.042,1.163,2.54,2.048c0.498,0.884,0.747,2.235,0.747,4.052v1.74c0,1.183,0.048,1.986,0.143,2.408
			c0.143,0.668,0.476,1.16,1,1.476v0.651h-5.977c-0.164-0.574-0.281-1.037-0.352-1.389c-0.14-0.727-0.217-1.471-0.228-2.232
			l-0.035-2.408c-0.023-1.652-0.308-2.754-0.857-3.305c-0.549-0.55-1.577-0.826-3.084-0.826h-5.288v10.16h-5.291V2.03h12.393
			C300.386,2.066,301.749,2.289,302.703,2.698z M291.513,6.531v6.961h5.827c1.158,0,2.025-0.14,2.605-0.422
			c1.024-0.492,1.536-1.464,1.536-2.918c0-1.571-0.496-2.625-1.486-3.164c-0.556-0.305-1.391-0.457-2.504-0.457H291.513z"/>
		<path class="st0" d="M317.585,2.03h5.326v10.676L332.922,2.03h6.996l-10.633,10.656l11.178,15.255h-6.962l-7.983-11.31
			l-2.608,2.644v8.666h-5.326V2.03z"/>
	</g>
	<g>
		<path class="st0" d="M0,2.095h18.784v2.079H10.61v23.731H8.173V4.174H0V2.095z"/>
		<path class="st0" d="M29.394,27.905V2.095h2.438v11.077h15.271V2.095h2.438v25.81h-2.438V15.251H31.832v12.654H29.394z"/>
		<path class="st0" d="M62.48,27.905V2.095h17.171v2.079H64.918v9.321h13.299v2.079H64.918v10.252h15.092v2.079H62.48z"/>
	</g>
	<g>
		<path class="st0" d="M357.016,27.905V2.095h9.428c1.672,0,3.052,0.191,4.14,0.574c1.087,0.382,1.948,0.908,2.581,1.577
			c0.633,0.669,1.076,1.44,1.326,2.312c0.251,0.873,0.376,1.787,0.376,2.742c0,1.434-0.293,2.617-0.878,3.549
			c-0.586,0.932-1.344,1.666-2.276,2.204c-0.932,0.538-1.989,0.914-3.172,1.129c-1.183,0.215-2.372,0.322-3.567,0.322h-5.52v11.4
			H357.016z M365.046,14.426c1.147,0,2.175-0.071,3.083-0.215c0.908-0.144,1.679-0.412,2.312-0.807
			c0.633-0.394,1.123-0.932,1.47-1.613c0.346-0.681,0.52-1.571,0.52-2.67c0-1.625-0.532-2.856-1.595-3.693
			c-1.063-0.836-2.754-1.255-5.072-1.255h-6.309v10.252H365.046z"/>
		<path class="st0" d="M388.597,16.183v11.722h-2.438V2.095h10.109c2.843,0,5.018,0.532,6.524,1.595
			c1.506,1.064,2.258,2.791,2.258,5.18c0,1.626-0.329,2.916-0.986,3.872c-0.658,0.956-1.727,1.768-3.208,2.437
			c0.765,0.263,1.362,0.645,1.792,1.147c0.43,0.502,0.753,1.075,0.968,1.72c0.215,0.645,0.352,1.326,0.412,2.044
			c0.06,0.717,0.102,1.41,0.125,2.079c0.024,0.98,0.065,1.793,0.125,2.437c0.06,0.645,0.131,1.172,0.215,1.578
			c0.083,0.406,0.185,0.723,0.305,0.95c0.119,0.227,0.263,0.401,0.43,0.52v0.251h-2.689c-0.263-0.431-0.448-1.027-0.556-1.793
			c-0.107-0.765-0.192-1.564-0.251-2.401c-0.06-0.837-0.107-1.649-0.143-2.438c-0.036-0.788-0.102-1.433-0.197-1.935
			c-0.143-0.693-0.376-1.248-0.699-1.667c-0.323-0.418-0.712-0.735-1.165-0.95c-0.454-0.216-0.962-0.358-1.523-0.431
			c-0.562-0.071-1.142-0.107-1.739-0.107H388.597z M396.197,14.104c0.908,0,1.75-0.096,2.527-0.287
			c0.776-0.191,1.452-0.496,2.026-0.914c0.574-0.417,1.027-0.95,1.362-1.595c0.334-0.645,0.502-1.422,0.502-2.33
			c0-0.956-0.174-1.744-0.52-2.366c-0.347-0.621-0.813-1.111-1.398-1.47c-0.586-0.358-1.255-0.609-2.008-0.753
			c-0.753-0.144-1.536-0.216-2.348-0.216h-7.743v9.93H396.197z"/>
		<path class="st0" d="M416.27,15.035c0-1.888,0.256-3.656,0.77-5.305c0.514-1.649,1.273-3.089,2.276-4.319
			c1.003-1.231,2.246-2.205,3.728-2.922c1.481-0.717,3.19-1.075,5.126-1.075c2.008,0,3.77,0.353,5.288,1.057
			c1.517,0.705,2.783,1.673,3.8,2.904c1.015,1.231,1.78,2.676,2.294,4.337c0.514,1.661,0.77,3.436,0.77,5.323
			c0,1.864-0.257,3.615-0.77,5.252c-0.514,1.637-1.273,3.071-2.276,4.302s-2.258,2.204-3.764,2.921
			c-1.506,0.717-3.25,1.076-5.234,1.076c-1.984,0-3.728-0.359-5.234-1.076c-1.506-0.717-2.76-1.69-3.764-2.921
			s-1.757-2.665-2.258-4.302C416.521,18.65,416.27,16.899,416.27,15.035z M428.315,26.506c1.673,0,3.112-0.316,4.32-0.95
			c1.206-0.633,2.198-1.476,2.975-2.527c0.776-1.052,1.35-2.27,1.721-3.657c0.371-1.386,0.556-2.832,0.556-4.337
			c0-1.792-0.222-3.399-0.663-4.821c-0.442-1.422-1.081-2.635-1.918-3.639c-0.837-1.004-1.852-1.768-3.047-2.294
			c-1.195-0.525-2.533-0.789-4.015-0.789c-1.649,0-3.077,0.322-4.284,0.968c-1.207,0.645-2.199,1.5-2.975,2.563
			c-0.777,1.063-1.35,2.288-1.721,3.674c-0.371,1.386-0.556,2.832-0.556,4.337c0,1.53,0.185,2.988,0.556,4.373
			c0.371,1.386,0.944,2.605,1.721,3.657c0.776,1.052,1.768,1.888,2.975,2.509C425.166,26.197,426.618,26.506,428.315,26.506z"/>
		<path class="st0" d="M452.655,19.732c0,0.812,0.03,1.613,0.09,2.401c0.059,0.789,0.238,1.5,0.538,2.133
			c0.299,0.634,0.765,1.142,1.398,1.524c0.633,0.383,1.511,0.573,2.634,0.573c1.673,0,2.85-0.478,3.531-1.433
			c0.681-0.956,1.021-2.342,1.021-4.159V2.095h2.438v18.748c0,2.509-0.586,4.427-1.757,5.754c-1.171,1.326-3.011,1.989-5.52,1.989
			c-1.458,0-2.629-0.245-3.513-0.736c-0.884-0.489-1.572-1.146-2.061-1.971c-0.49-0.824-0.819-1.768-0.986-2.832
			c-0.167-1.063-0.251-2.169-0.251-3.316H452.655z"/>
		<path class="st0" d="M477.424,27.905V2.095h17.171v2.079h-14.733v9.321h13.299v2.079h-13.299v10.252h15.092v2.079H477.424z"/>
		<path class="st0" d="M524.814,9.587c-0.502-2.198-1.434-3.764-2.796-4.696c-1.362-0.932-3.142-1.398-5.341-1.398
			c-1.553,0-2.891,0.311-4.015,0.932c-1.123,0.622-2.049,1.459-2.778,2.509c-0.729,1.052-1.267,2.265-1.613,3.639
			c-0.347,1.375-0.52,2.826-0.52,4.355c0,1.434,0.149,2.844,0.448,4.23c0.299,1.386,0.794,2.623,1.488,3.71
			c0.693,1.088,1.625,1.966,2.796,2.635c1.171,0.67,2.64,1.004,4.409,1.004c1.099,0,2.102-0.179,3.01-0.537
			c0.908-0.359,1.703-0.855,2.384-1.488c0.681-0.633,1.255-1.379,1.72-2.24c0.467-0.86,0.819-1.804,1.058-2.832h2.545
			c-0.286,1.243-0.705,2.42-1.254,3.531c-0.55,1.111-1.273,2.085-2.169,2.921c-0.896,0.837-1.984,1.5-3.262,1.989
			c-1.279,0.49-2.778,0.736-4.499,0.736c-1.984,0-3.68-0.365-5.09-1.094c-1.41-0.729-2.563-1.714-3.459-2.957
			c-0.896-1.242-1.548-2.683-1.953-4.319c-0.407-1.637-0.61-3.375-0.61-5.216c0-2.462,0.305-4.553,0.914-6.273
			s1.452-3.124,2.527-4.212c1.075-1.088,2.342-1.876,3.799-2.366c1.458-0.49,3.047-0.735,4.768-0.735
			c1.314,0,2.539,0.173,3.675,0.519c1.135,0.347,2.138,0.867,3.01,1.56s1.59,1.547,2.151,2.563c0.561,1.016,0.95,2.193,1.165,3.531
			H524.814z"/>
		<path class="st0" d="M537.216,2.095H556v2.079h-8.174v23.731h-2.437V4.174h-8.173V2.095z"/>
	</g>
</g>
</svg>
