<?xml version="1.0" encoding="utf-8"?>
<!-- Generator: Adobe Illustrator 17.0.0, SVG Export Plug-In . SVG Version: 6.00 Build 0)  -->
<!DOCTYPE svg PUBLIC "-//W3C//DTD SVG 1.1//EN" "http://www.w3.org/Graphics/SVG/1.1/DTD/svg11.dtd">
<svg version="1.1" id="Vector_Graphics" xmlns="http://www.w3.org/2000/svg" xmlns:xlink="http://www.w3.org/1999/xlink" x="0px"
	 y="0px" width="260px" height="78px" viewBox="0 0 260 78" style="enable-background:new 0 0 260 78;" xml:space="preserve">
<style type="text/css">
	.st0{fill:#757474;}
</style>
<path class="st0" d="M259.16,10.54c0,0-31.853-9.366-61.569-10.077c-0.137-0.007-0.28-0.007-0.417-0.013
	c-29.839-0.626-38.456,4.419-46.44,7.359c0,0-7.144,3.155-9.875,3.572l-22.48,0.417c0,0-2.105,0.424-7.359-2.307
	c-5.253-2.731-25.009-11.139-57.156-8.193c0,0-36.351,3.78-52.743,9.66c0,0-2.522,15.975,0,19.964l3.363,1.049
	c0,0,4.204,0.424,7.352,7.776l0.476,2.359c0,0,2.679,8.988,6.042,17.814c0,0,4.712,13.662,22.95,16.81
	c0,0,28.529,2.099,38.619-0.209c0,0,21.007-1.682,31.514-19.124c0,0,6.727-10.507,7.144-25.844c0,0,0.424-11.139,10.507-10.931
	c0,0,9.04-1.258,10.722,11.348c0,0,3.148,28.79,22.689,38.88c0,0,7.991,6.088,28.581,6.511c6.173,0.143,12.384,0.202,18.55-0.137
	c9.001-0.508,17.755-1.981,24.781-8.134c2.496-2.183,4.361-4.954,5.84-7.906c2.698-5.41,4.771-10.781,5.905-16.712
	c0.71-3.709,2.457-7.424,5.175-10.083c1.004-0.984,2.151-1.838,3.383-2.509c0.43-0.228,4.439-1.506,4.445-1.59
	C259.16,30.289,261.05,15.585,259.16,10.54z"/>
</svg>
