<?xml version="1.0" encoding="utf-8"?>
<!-- Generator: Adobe Illustrator 17.0.0, SVG Export Plug-In . SVG Version: 6.00 Build 0)  -->
<!DOCTYPE svg PUBLIC "-//W3C//DTD SVG 1.1//EN" "http://www.w3.org/Graphics/SVG/1.1/DTD/svg11.dtd">
<svg version="1.1" id="Layer_1" xmlns="http://www.w3.org/2000/svg" xmlns:xlink="http://www.w3.org/1999/xlink" x="0px" y="0px"
	 width="410px" height="136px" viewBox="0 0 410 136" style="enable-background:new 0 0 410 136;" xml:space="preserve">
<style type="text/css">
	.st0{fill:url(#SVGID_1_);}
	.st1{fill:url(#SVGID_2_);}
	.st2{fill:url(#SVGID_3_);}
	.st3{fill:#6D6E71;}
</style>
<g>
	<g>
		<g>
			<g>
				
					<linearGradient id="SVGID_1_" gradientUnits="userSpaceOnUse" x1="1558.6" y1="3453.6113" x2="1558.6" y2="2997.3855" gradientTransform="matrix(0.122 0 0 0.122 -122.0732 -305.1707)">
					<stop  offset="0" style="stop-color:#3A3A3A"/>
					<stop  offset="1" style="stop-color:#1C1C1C"/>
				</linearGradient>
				<path class="st0" d="M136,119.7c0,9-7.3,16.3-16.3,16.3H16.3c-9,0-16.3-7.3-16.3-16.3V16.3C0,7.3,7.3,0,16.3,0h103.4
					c9,0,16.3,7.3,16.3,16.3V119.7z"/>
				
					<linearGradient id="SVGID_2_" gradientUnits="userSpaceOnUse" x1="1558.5999" y1="3245.22" x2="1558.5999" y2="3356.7397" gradientTransform="matrix(0.122 0 0 0.122 -122.0732 -305.1707)">
					<stop  offset="0" style="stop-color:#BCBEC0"/>
					<stop  offset="1" style="stop-color:#A7A9AC"/>
				</linearGradient>
				<path class="st1" d="M73.9,90.6c-0.3,0.6-0.5,1.1-0.8,1.6c9.2,0.7,14.6,3.2,14.6,5c0,0.9-1.4,2.3-5.4,3.5
					c-3.8,1.1-8.9,1.7-14.3,1.7c-12.2,0-19.7-3-19.7-5.2c0-0.9,1.4-2.3,5.4-3.5c2.6-0.8,5.8-1.3,9.3-1.6c-0.3-0.5-0.5-1.1-0.8-1.6
					c-8.3,0.7-15.6,3-15.6,6.7c0,4.5,11,6.9,21.4,6.9s21.4-2.4,21.4-6.9C89.4,93.6,82.2,91.3,73.9,90.6z"/>
				
					<linearGradient id="SVGID_3_" gradientUnits="userSpaceOnUse" x1="1558.6" y1="3230.8928" x2="1558.6" y2="3006.6516" gradientTransform="matrix(0.122 0 0 0.122 -122.0732 -305.1707)">
					<stop  offset="0" style="stop-color:#E6E7E8"/>
					<stop  offset="1" style="stop-color:#FFFFFF"/>
				</linearGradient>
				<path class="st2" d="M68,31.8L68,31.8c-10.6,0-19.1,8.7-19.1,19.4c0,9.5,19.1,47.5,19.1,47.5l0,0c0.3-0.6,19.1-36.7,19.1-47.5
					C87.1,40.5,78.6,31.8,68,31.8z"/>
			</g>
			<g>
				<path d="M169.1,33.2h6.4v25h15.2v5.5h-21.6C169.1,63.7,169.1,33.2,169.1,33.2z"/>
				<path d="M203.6,33.2h7.2l10.8,30.5h-6.9l-2-6.3h-11.2l-2.1,6.3h-6.7L203.6,33.2z M203.2,52.1h7.8l-3.8-12L203.2,52.1z"/>
				<path d="M225.4,33.2h6.7l12.1,21.2V33.2h5.9v30.5h-6.4L231.3,42v21.6h-5.9C225.4,63.6,225.4,33.2,225.4,33.2z"/>
				<path d="M273.9,33.8c2.1,0.7,3.9,2,5.2,3.9c1.1,1.5,1.8,3.2,2.2,4.9c0.4,1.8,0.6,3.4,0.6,5c0,4.1-0.8,7.5-2.4,10.3
					c-2.2,3.8-5.6,5.7-10.2,5.7H256V33.2h13.1C271.1,33.2,272.6,33.4,273.9,33.8z M262.2,38.5v19.9h5.9c3,0,5.1-1.5,6.3-4.4
					c0.6-1.6,1-3.6,1-5.8c0-3.1-0.5-5.5-1.5-7.1c-1-1.7-2.9-2.5-5.8-2.5C268.1,38.5,262.2,38.5,262.2,38.5z"/>
				<path d="M306.8,33.2h9.2v30.5h-6V43c0-0.6,0-1.4,0-2.5s0-1.9,0-2.5l-5.8,25.6H298L292.3,38c0,0.6,0,1.4,0,2.5s0,1.9,0,2.5v20.6
					h-5.9V33.2h9.3l5.5,24L306.8,33.2z"/>
				<path d="M330.6,33.2h7.2l10.8,30.5h-6.9l-2-6.3h-11.2l-2.1,6.3h-6.7L330.6,33.2z M330.2,52.1h7.8l-3.8-12L330.2,52.1z"/>
				<path d="M372,34c1.1,0.5,2.1,1.2,2.9,2.1c0.6,0.8,1.2,1.6,1.5,2.6c0.4,0.9,0.6,2,0.6,3.2c0,1.4-0.4,2.9-1.1,4.3
					c-0.7,1.4-1.9,2.4-3.6,3c1.4,0.6,2.4,1.4,3,2.4s0.9,2.6,0.9,4.8v2c0,1.4,0.1,2.3,0.2,2.8c0.2,0.8,0.6,1.4,1.2,1.7v0.8h-7
					c-0.2-0.7-0.3-1.2-0.4-1.6c-0.2-0.9-0.3-1.7-0.3-2.6v-2.8c0-1.9-0.4-3.2-1-3.9c-0.6-0.6-1.9-1-3.6-1h-6.2v11.9h-6.2V33.2h14.6
					C369.2,33.2,370.8,33.5,372,34z M358.8,38.5v8.2h6.9c1.4,0,2.4-0.2,3.1-0.5c1.2-0.6,1.8-1.7,1.8-3.4c0-1.8-0.6-3.1-1.7-3.7
					c-0.7-0.4-1.6-0.5-2.9-0.5L358.8,38.5L358.8,38.5z"/>
				<path d="M383.1,33.2h6.3v12.6l11.8-12.6h8.2l-12.5,12.5L410,63.6h-8.2l-9.4-13.3l-3.1,3.1v10.2H383L383.1,33.2L383.1,33.2z"/>
				<path class="st3" d="M171.7,94.1c0.1,1.7,0.5,3.1,1.2,4.2c1.3,2,3.6,3,6.9,3c1.5,0,2.8-0.2,4.1-0.7c2.4-0.9,3.5-2.4,3.5-4.6
					c0-1.7-0.5-2.8-1.5-3.5s-2.6-1.3-4.8-1.8l-4-0.9c-2.6-0.6-4.4-1.3-5.5-2c-1.9-1.3-2.8-3.2-2.8-5.7c0-2.7,0.9-5,2.8-6.7
					s4.4-2.6,7.8-2.6c3.1,0,5.7,0.8,7.9,2.3s3.2,4,3.2,7.4h-3.9c-0.2-1.6-0.6-2.9-1.3-3.7c-1.2-1.6-3.2-2.4-6.1-2.4
					c-2.3,0-4,0.5-5,1.5s-1.5,2.2-1.5,3.6c0,1.5,0.6,2.6,1.8,3.3c0.8,0.4,2.6,1,5.3,1.7l4.1,1c2,0.5,3.5,1.1,4.6,1.9
					c1.9,1.4,2.8,3.5,2.8,6.2c0,3.4-1.2,5.8-3.6,7.2c-2.4,1.4-5.2,2.2-8.3,2.2c-3.7,0-6.6-1-8.6-2.9c-2.1-1.9-3.1-4.5-3.1-7.8
					L171.7,94.1L171.7,94.1z"/>
				<path class="st3" d="M197.7,73.6h22v3.7h-18v9.2h16.7V90h-16.7v10.3H220v3.6h-22.3V73.6z"/>
				<path class="st3" d="M226,73.6h13.8c2.3,0,4.1,0.3,5.6,1c2.8,1.3,4.2,3.7,4.2,7.2c0,1.8-0.4,3.3-1.1,4.5
					c-0.8,1.2-1.8,2.1-3.2,2.8c1.2,0.5,2.1,1.1,2.7,1.9c0.6,0.8,0.9,2.1,1,3.8l0.1,4.1c0,1.2,0.1,2,0.3,2.6c0.2,1,0.7,1.6,1.3,1.9
					v0.7h-5c-0.1-0.3-0.2-0.6-0.3-1s-0.2-1.2-0.2-2.4l-0.2-5.1c-0.1-2-0.8-3.3-2.1-4c-0.8-0.4-2-0.6-3.6-0.6h-9.1v13H226V73.6
					L226,73.6z M239.4,87.5c1.9,0,3.4-0.4,4.5-1.2c1.1-0.8,1.6-2.2,1.6-4.2c0-2.2-0.8-3.6-2.3-4.4c-0.8-0.4-1.9-0.6-3.3-0.6h-9.8
					v10.4C230.1,87.5,239.4,87.5,239.4,87.5z"/>
				<path class="st3" d="M257.7,73.6l8.7,25.9l8.6-25.9h4.6L268.5,104h-4.4L253,73.6H257.7z"/>
				<path class="st3" d="M284,73.6h22v3.7h-18v9.2h16.7V90H288v10.3h18.3v3.6H284V73.6z"/>
			</g>
		</g>
	</g>
</g>
<g>
</g>
<g>
</g>
<g>
</g>
<g>
</g>
<g>
</g>
<g>
</g>
<g>
</g>
<g>
</g>
<g>
</g>
<g>
</g>
<g>
</g>
<g>
</g>
<g>
</g>
<g>
</g>
<g>
</g>
</svg>
